<?xml version="1.0" encoding="utf-8"?>
<!-- Generator: Adobe Illustrator 23.0.4, SVG Export Plug-In . SVG Version: 6.00 Build 0)  -->
<svg version="1.1" id="Layer_1" xmlns="http://www.w3.org/2000/svg" xmlns:xlink="http://www.w3.org/1999/xlink" x="0px" y="0px"
	 viewBox="0 0 72 72" style="enable-background:new 0 0 72 72;" xml:space="preserve">
<style type="text/css">
	.st0{fill:#FFFFFF;}
	.st1{fill:#4285F4;}
	.st2{fill:#34A853;}
	.st3{fill:#FBBC05;}
	.st4{fill:#EB4335;}
</style>
<g id="Twitter">
	<rect class="st0" width="72" height="72"/>
</g>
<g id="Guides">
</g>
<path class="st1" d="M53.5,36.4c0-1.5-0.1-2.6-0.4-3.7H36.3v6.7h9.9c-0.2,1.7-1.3,4.1-3.7,5.8l0,0.2l5.3,4.1l0.4,0
	C51.6,46.5,53.5,41.8,53.5,36.4"/>
<path class="st2" d="M36.3,53.9c4.8,0,8.9-1.6,11.9-4.3l-5.7-4.4C41,46.3,38.9,47,36.3,47c-4.7,0-8.8-3.1-10.2-7.5l-0.2,0l-5.5,4.3
	L20.2,44C23.2,49.9,29.3,53.9,36.3,53.9"/>
<path class="st3" d="M26.1,39.5c-0.4-1.1-0.6-2.3-0.6-3.6c0-1.2,0.2-2.4,0.6-3.6l0-0.2l-5.6-4.4l-0.2,0.1c-1.2,2.4-1.9,5.2-1.9,8.1
	s0.7,5.6,1.9,8.1L26.1,39.5"/>
<path class="st4" d="M36.3,25c3.4,0,5.6,1.5,6.9,2.7l5.1-4.9c-3.1-2.9-7.2-4.7-12-4.7c-7,0-13.1,4-16,9.9l5.8,4.5
	C27.5,28.1,31.5,25,36.3,25"/>
</svg>
